{"title":"Forbidden.Empire.2014.BRRiP.XViD.AC3.5.1.ReLeNTLesS","uid":12112757,"size":1439768339,"categoryP":"video","categoryS":"movies","magnet":"?xt=urn:btih:f92201b195007be454da84506806a689d857a4c1&amp;dn=Forbidden.Empire.2014.BRRiP.XViD.AC3.5.1.ReLeNTLesS&amp;tr=udp%3A%2F%2Ftracker.openbittorrent.com%3A80&amp;tr=udp%3A%2F%2Fopen.demonii.com%3A1337&amp;tr=udp%3A%2F%2Ftracker.coppersurfer.tk%3A6969&amp;tr=udp%3A%2F%2Fexodus.desync.com%3A6969","seeders":53,"leechers":21,"uploader":"xxxlavalxxx","files":4,"time":1436573728,"description":" &lt;a href=&quot;http://extraimago.com/image/c50&quot; rel=&quot;nofollow&quot; target=&quot;_NEW&quot;&gt;http://extraimago.com/image/c50&lt;/a&gt;\n &lt;a href=&quot;\nhttp://www.imdb.com/title/tt1224378/&quot; rel=&quot;nofollow&quot; target=&quot;_NEW&quot;&gt;\nhttp://www.imdb.com/title/tt1224378/&lt;/a&gt;\n\n\nAn 18th century English cartographer, Jonathan Green, sets out on a journey to map the uncharted lands of Transylvania, only to discover the dark secrets and dangerous creatures hidden in a cursed, fantastical Ukrainian forest.\n\nDirector: Oleg Stepchenko\nWriters: Nikolai Gogol (story), Aleksandr Karpov (script)\nStars: Jason Flemyng, Andrey Smolyakov, Aleksey Chadov \nGenres: Adventure | Fantasy | Mystery | Thriller\nCountry: Russia | Ukraine | Czech Republic\nLanguage: Russian | English\n\n\nGeneral\nComplete name: Forbidden.Empire.2014.BRRiP.XViD.AC3.5.1.ReLeNTLesS.avi\nFormat: AVI\nFormat/Info: Audio Video Interleave\nFile size: 1.33 GiB\nDuration: 1h 51mn\nOverall bit rate: 1 702 Kbps\n\nVideo\nID: 0\nFormat: MPEG-4 Visual\nFormat profile: Advanced Simple@L5\nFormat settings, BVOP: 1\nFormat settings, QPel: No\nFormat settings, GMC: No warppoints\nFormat settings, Matrix: Default (H.263)\nMuxing mode: Packed bitstream\nCodec ID: XVID\nCodec ID/Hint: XviD\nDuration: 1h 51mn\nBit rate: 1 502 Kbps\nWidth: 720 pixels\nHeight: 400 pixels\nDisplay aspect ratio: 16:9\nFrame rate: 23.976 fps\nColor space: YUV\nChroma subsampling: 4:2:0\nBit depth: 8 bits\nScan type: Progressive\nCompression mode: Lossy\nBits/(Pixel*Frame): 0.218\nStream size: 1.17 GiB (88%)\nWriting library: XviD 1.2.1 (UTC 2008-12-04)\n\nAudio\nID: 1\nFormat: AC-3\nFormat/Info: Audio Coding 3\nMode extension: CM (complete main)\nFormat settings, Endianness: Big\nCodec ID: 2000\nDuration: 1h 51mn\nBit rate mode: Constant\nBit rate: 192 Kbps\nChannel(s): 6 channels\nChannel positions: Front: L C R, Side: L R, LFE\nSampling rate: 48.0 KHz\nCompression mode: Lossy\nStream size: 153 MiB (11%)\nAlignment: Aligned on interleaves\nInterleave, duration: 64 ms (1.53 video frames)\nInterleave, preload duratio: 192 ms\nTitle: Forbidden.Empire.2014.ReLeNTLesS.audio.AC3.5.1.English\nSample Included: Yes\nSource: iFT Thanks\n\n &lt;a href=&quot;\nhttp://extraimago.com/image/c5J&quot; rel=&quot;nofollow&quot; target=&quot;_NEW&quot;&gt;\nhttp://extraimago.com/image/c5J&lt;/a&gt; &lt;a href=&quot;\nhttp://extraimago.com/image/c5K&quot; rel=&quot;nofollow&quot; target=&quot;_NEW&quot;&gt;\nhttp://extraimago.com/image/c5K&lt;/a&gt; &lt;a href=&quot;\nhttp://extraimago.com/image/c5Z&quot; rel=&quot;nofollow&quot; target=&quot;_NEW&quot;&gt;\nhttp://extraimago.com/image/c5Z&lt;/a&gt; &lt;a href=&quot;\nhttp://extraimago.com/image/c5e&quot; rel=&quot;nofollow&quot; target=&quot;_NEW&quot;&gt;\nhttp://extraimago.com/image/c5e&lt;/a&gt; &lt;a href=&quot;\nhttp://extraimago.com/image/c54&quot; rel=&quot;nofollow&quot; target=&quot;_NEW&quot;&gt;\nhttp://extraimago.com/image/c54&lt;/a&gt; &lt;a href=&quot;\nhttp://extraimago.com/image/c5B&quot; rel=&quot;nofollow&quot; target=&quot;_NEW&quot;&gt;\nhttp://extraimago.com/image/c5B&lt;/a&gt; &lt;a href=&quot;\nhttp://extraimago.com/image/c5C&quot; rel=&quot;nofollow&quot; target=&quot;_NEW&quot;&gt;\nhttp://extraimago.com/image/c5C&lt;/a&gt; &lt;a href=&quot;\nhttp://extraimago.com/image/c5Y&quot; rel=&quot;nofollow&quot; target=&quot;_NEW&quot;&gt;\nhttp://extraimago.com/image/c5Y&lt;/a&gt;","torrent":{"xt":"urn:btih:f92201b195007be454da84506806a689d857a4c1","amp;dn":"Forbidden.Empire.2014.BRRiP.XViD.AC3.5.1.ReLeNTLesS","amp;tr":["udp%3A%2F%2Ftracker.openbittorrent.com%3A80","udp%3A%2F%2Fopen.demonii.com%3A1337","udp%3A%2F%2Ftracker.coppersurfer.tk%3A6969","udp%3A%2F%2Fexodus.desync.com%3A6969"],"infoHash":"f92201b195007be454da84506806a689d857a4c1","infoHashBuffer":{"type":"Buffer","data":[249,34,1,177,149,0,123,228,84,218,132,80,104,6,166,137,216,87,164,193]},"announce":[],"urlList":[]}}